<?xml version="1.0" encoding="utf-8"?>
<!-- Generator: Adobe Illustrator 17.1.0, SVG Export Plug-In . SVG Version: 6.00 Build 0)  -->
<!DOCTYPE svg PUBLIC "-//W3C//DTD SVG 1.1//EN" "http://www.w3.org/Graphics/SVG/1.1/DTD/svg11.dtd">
<svg version="1.1" xmlns="http://www.w3.org/2000/svg" xmlns:xlink="http://www.w3.org/1999/xlink" x="0px" y="0px"
	 viewBox="0 0 792 612" enable-background="new 0 0 792 612" xml:space="preserve">
<g id="Layer_1">
	<g>
		<path fill="#FFFFFF" d="M766.8,250.1c-0.4-0.4-0.8-0.8-1.2-1.1c-1-0.9-1.8-1.6-2.7-2.4c-17.8-14.1-36.1-28.6-54.4-43
			c-2.5-2-5.8-3.1-9-3.1c-0.1,0-0.2,0-0.4,0c-3.4,0.1-6.7,0.3-10,0.5c-2.8,0.2-5.7,0.3-8.5,0.4c-7.8,0.3-15.8,0.5-23.5,0.7
			c-4.5,0.1-9,0.3-13.4,0.4c-6.2,0.2-12.3,0.4-18.5,0.6c-7.6,0.2-15.2,0.5-22.7,0.7c-1.3,0-2.7,0-4.1,0c-0.7,0-1.4,0-2.1,0
			c-2.2,0-4.3,0.8-5.9,2.2c-1.7-1.9-4.8-5.1-9.3-5.8c-4.8-0.8-9.6-1.1-14.2-1.4l-1.9-0.1c-4.2-0.3-8.5-0.5-12.7-0.8
			c-3.7-0.2-7.5-0.4-11.2-0.7c-2.2-0.1-4.5-0.4-6.8-0.6c-1.3-0.1-2.5-0.2-3.8-0.4c-2.4-0.2-4.8-0.4-7.2-0.6
			c-5.8-0.5-11.8-1.1-17.8-1.5c-6.1-0.4-12.4-0.8-18.4-1.1c-2.6-0.1-5.2-0.3-7.9-0.4l-0.2,0c-3.4-0.3-6.8-0.6-10.2-0.9
			c-8.3-0.7-16.8-1.5-25.2-2.2c-3-0.2-6-0.4-8.9-0.5c-2.6-0.1-5.1-0.2-7.6-0.4c-4.9-0.4-10-0.8-14.9-1.2c-4.5-0.4-9.1-0.8-13.6-1.1
			c-0.5,0-1-0.1-1.5-0.1c-1.9,0-3.6,0.3-5.2,0.5c-4.5,0.8-8.9,1.5-13.4,2.3c-3.4,0.6-6.8,1.2-10.2,1.8c-1.9,0.3-3.8,0.6-5.7,0.9
			c-3.3,0.5-6.6,1.1-10,1.7c-2.4,0.5-4.8,1-7.1,1.6c-2.9,0.7-5.6,1.3-8.3,1.7c-4.6,0.8-9.3,1.4-13.9,2.1c-4,0.6-8.2,1.2-12.3,1.8
			c-4.3,0.7-8.6,1.5-12.8,2.3c-3.1,0.6-6.3,1.2-9.5,1.7c-4.5,0.8-9.1,1.5-13.6,2.2c-3.8,0.6-7.5,1.2-11.3,1.8
			c-8,1.3-15.9,2.7-23.4,4c-2,0.4-4,0.8-6,1.1c-3.3,0.7-6.4,1.3-9.5,1.7c-0.9,0.1-2.1,0-3-0.3c-2.7-0.9-5.4-2-8.3-3.2
			c-1.2-0.5-2.4-1-3.7-1.5c-4.5-1.8-8.9-3.6-13.4-5.5c-10.6-4.3-21.6-8.8-32.4-13.1c-8-3.2-14.3-5.2-20.4-6.7c-3.7-0.9-7.4-1.5-11-2
			c-3.5-0.5-6.8-1-9.9-1.8c-3.2-0.8-6.2-1.3-9-1.3c-4.6,0-9.1,1.2-13.2,3.4c-3.3,1.9-7,3.4-9.8,4.6c-1.9,0.8-4,1.5-6.4,2.3
			c-1.2,0.4-2.4,0.8-3.6,1.2c-2.7,0.9-4.7,3-5.6,5.7c-0.3,0-0.6-0.1-1-0.1c-11.6-1.1-23.3-1.9-34.6-2.7c-3.3-0.2-6.6-0.5-9.9-0.7
			c-0.9-0.1-2-0.1-3.2,0c-0.3,0-0.7,0-1.1,0c-2.8,0-5.4,1.3-7.1,3.4c-1.7,2.2-2.3,5-1.7,7.7c0.5,2.2,1,4.3,1.5,6.4
			c1.4,6,2.7,11.7,4.2,17.4c0.4,1.6,2.2,7.2,7.3,10c3.2,1.8,6.4,3.6,9.6,5.4c10.5,5.9,21.3,12,32.6,17.2c10.6,4.8,21.5,9,32.1,13
			c5.2,2,10.6,4,15.8,6.1c1.5,0.6,3,1.2,4.5,1.7c4.4,1.7,8.6,3.2,12,5.4c19,11.8,38.2,23.9,56.8,35.7c6.7,4.2,13.4,8.5,20.1,12.7
			l-5.8,11.1c-7.5,14.3-15.3,29.1-23,43.6c-1.4,0.6-3.1,1.1-4.7,1.7c-0.6,0.2-1.2,0.4-1.8,0.6c-6.4,2.2-12.7,4.4-19.1,6.5
			c-8.5,2.9-17.1,5.8-25.6,8.8c-2.2,0.8-4.4,1.6-6.5,2.3c-1,0.4-1.9,0.7-2.9,1.1c-3.8,1.4-6.2,5.2-5.9,9.2c0.3,4.1,3.4,7.4,7.4,8.1
			c8.3,1.5,16.5,2.3,24.8,3c4,0.4,8,0.7,11.9,1c5.8,0.5,11.7,1,17.6,1.5c4.3,0.4,8.5,0.8,12.8,1.3c5.5,0.6,11.1,1.1,16.7,1.6
			c0.4,0,0.8,0.1,1.2,0.1c3.3,0,6.6-1.1,9-3c30.3-23.5,55.6-43.2,79.2-61.7c1.3,1.8,2.6,3.5,3.9,5.3l6.5,8.7
			c10.6,14.2,21.6,29,32.5,43.4c2.7,3.5,7.3,5.9,11.6,6c9.2,0.1,18.5,0.1,27.6,0.1c6.1,0,12.3,0,18.4,0c0,0,0.1,0,0.1,0
			c6.1,0,10.6-3.3,12.3-9.1c1.1-3.5,2.3-7.2,3.4-10.7c0.7-2.2,1.5-4.5,2.2-6.7c0.8-2.5,1.6-5.1,2.4-7.7c0.4-1.2,0.8-2.5,1.1-3.7
			c1-3.2,0.1-6.6-2.2-9c-2.3-2.4-5.8-3.2-9-2.3l-24.2,7.2l-5-32.3c5.6-0.8,11.2-1.6,16.7-2.3c3.1-0.4,6.2-0.8,9.4-1.2
			c3.8-0.5,7.7-0.9,11.6-1.5c5.2-0.7,10.5-1.5,15.7-2.3c4.5-0.7,9.1-1.3,13.6-2c3.2-0.4,6.4-0.9,9.6-1.3c3.5-0.4,7-0.9,10.6-1.4
			c6.8,15.3,13.7,30.7,20.6,46.2l2.8,6.2l-27.9,13.6c-4.3,2.1-6.2,7.2-4.3,11.6l0.3,0.7c1.4,3.4,4.9,5.6,8.6,5.5l72.9-2.3
			c4.4-0.1,8.1-3.5,8.6-7.9l7.9-62.9c1.6,0.4,3.2,0.8,4.8,1.3c6.7,1.8,13.4,3.6,20.1,5.4c4.1,1.1,8.1,2.2,12.2,3.3
			c2.5,0.7,5,1.3,7.4,2c6.8,1.9,13.9,3.8,20.9,5.6c0.8,0.2,1.6,0.4,2.4,0.6c3.3,0.9,7.1,2,11.4,2c2.6,0,5.2-0.4,7.7-1.2
			c2.2-0.7,4.6-1.2,7.1-1.8l1.1-0.2c12.7-2.7,22.4-4.8,31.4-6.7c0.5-0.1,1.2-0.2,1.7-0.3c0.2,0.3,0.5,0.5,0.7,0.8
			c5.3,6.2,10.6,12.5,15.8,18.8c3.6,4.3,7.2,8.5,10.8,12.8c1.5,1.7,2.9,3.4,4.5,5.1c0.7,0.8,1.5,1.6,2.2,2.5
			c2.2,2.5,5.5,3.6,8.7,2.9c3.2-0.7,5.8-3.1,6.7-6.3c0.2-0.6,0.4-1.2,0.5-1.6c0.4-1.2,0.8-2.4,1-3.8l0.1-0.5
			c2.2-12.4,4.5-25.2,6.6-37.8c0.7-4.1-0.9-8.1-2.6-10.5c-2.5-3.5-5.1-6.9-7.6-10.2l-6.6-8.7c-7.6-9.9-15.4-20.2-23.2-30.3
			c-2.8-3.6-8.3-5.7-12.7-4.8c-5.9,1.3-12.5,2.7-19.2,4.5c-2.4-5.6-4.9-11.2-7.3-16.7c-1.2-2.6-2.3-5.2-3.5-7.9l-5.8-13.3h106.6
			c0,0,0,0,0,0c5,0,9-4,9-9C770.2,254.3,768.9,251.8,766.8,250.1z"/>
	</g>
</g>
<g id="Layer_2">
	<path fill="#F37321" d="M502.8,407.1c-9.7-21.6-19.1-42.7-28.5-63.7c-1-2.2-2.3-2.7-4.6-2.4c-7.8,1.2-15.7,2.1-23.5,3.2
		c-9.8,1.4-19.5,2.9-29.3,4.2c-7,1-13.9,1.7-20.9,2.6c-8.5,1.1-16.9,2.3-25.8,3.6c2.7,17.3,5.3,34.2,8,51.5
		c11.6-3.4,22.6-6.7,34.1-10.1c-1.2,4-2.3,7.7-3.5,11.4c-1.9,5.8-3.8,11.6-5.6,17.5c-0.6,2-1.7,2.7-3.8,2.7
		c-15.3-0.1-30.6,0-45.9-0.2c-1.5,0-3.6-1.1-4.5-2.4c-13.1-17.3-26-34.7-38.9-52.1c-2.5-3.3-5-6.7-7.4-10c-1.4-2-2.6-2.2-4.8-0.5
		c-27.8,21.8-55.7,43.5-83.6,65.2c-1,0.8-2.6,1.2-3.9,1.1c-9.8-0.9-19.7-2-29.5-2.9c-9.8-0.9-19.7-1.7-29.5-2.6
		c-8-0.7-15.9-1.5-24-2.9c3.1-1.1,6.1-2.3,9.2-3.3c14.9-5.1,29.8-10.2,44.7-15.3c2.7-0.9,5.4-1.8,8-2.9c1.2-0.5,2.4-1.6,3-2.7
		c10.3-19.5,20.6-39,30.9-58.6c2.4-4.5,2.4-4.5-2-7.3c-26.5-16.8-52.9-33.7-79.6-50.2c-5.5-3.4-11.9-5.4-18-7.8
		c-15.8-6.3-32-11.8-47.4-18.9c-14.3-6.5-27.9-14.6-41.6-22.3c-1.4-0.8-2.5-2.8-2.9-4.4c-2-7.7-3.8-15.5-5.7-23.7
		c1.3,0,2.4-0.1,3.6,0c14.8,1.1,29.6,2,44.4,3.4c2.5,0.2,4.9,2.1,7.3,3.5c4.1,2.3,7.9,5.3,12.2,7c5.4,2.2,11.1,3.9,16.9,5
		c13.8,2.7,27.1,6.7,40.1,11.9c23.3,9.3,47,17.9,70.1,27.6c7.9,3.3,14.9,9,22,14.1c19.4,13.7,38.5,27.7,57.8,41.4
		c1.3,0.9,3.3,1.3,4.9,1.3c15,0.2,29.9,0.2,44.9,0.3c19.4,0.2,38.7,0.4,58.1,0.7c1.3,0,2.5,0,3.8,0c0.2-0.3,0.3-0.6,0.5-1
		c-5.9-4.8-11.9-9.6-17.8-14.4c0.1-0.3,0.3-0.7,0.4-1c18.9,3.8,37.7,7.6,56.6,11.4c0.2-0.3,0.4-0.6,0.7-0.9
		c-5.2-5-10.4-9.9-16.4-15.7c2.9,0.1,4.9,0.2,6.9,0.3c6.4,0.3,12.7,0.5,19.1,0.9c10.5,0.6,21,1.3,31.5,2c3,0.2,5.6-0.3,8.3-2
		c23.2-14.4,46.6-28.5,69.9-42.9c4.4-2.7,9.3-2.3,14-2.8c12.7-1.3,25.4-2.4,38-3.5c0.5,0,1-0.3,2.2-0.6
		c-10.1-12-19.9-23.6-29.6-35.3c0.1-0.3,0.2-0.6,0.3-0.9c2.1,0,4.3,0.1,6.4,0c13.7-0.4,27.5-0.9,41.2-1.3
		c12.3-0.4,24.6-0.7,36.9-1.1c6.1-0.2,12.3-0.7,18.4-0.9c1.2,0,2.6,0.5,3.5,1.2c18.2,14.3,36.2,28.6,54.3,43
		c1.1,0.9,2.1,1.9,3.9,3.4c-40.5,0-80.1,0-120.4,0c4,9.1,7.7,17.5,11.4,26c4.1,9.3,8.2,18.6,12.2,27.9c1.1,2.6,2.1,3.7,5.3,2.8
		c7.4-2.2,15-3.9,22.6-5.5c1.1-0.2,3,0.5,3.7,1.5c9.3,12,18.5,24.1,27.7,36.2c3.2,4.2,6.4,8.3,9.4,12.6c0.7,1,1.2,2.6,1,3.8
		c-2.1,12.7-4.4,25.5-6.7,38.2c-0.2,1.3-0.7,2.5-1.3,4.5c-2.4-2.7-4.5-5.1-6.6-7.5c-8.9-10.5-17.7-21.1-26.6-31.6
		c-4.1-4.8-4.2-4.8-11-3.4c-10.5,2.2-21,4.4-31.5,6.7c-3.1,0.7-6.2,1.3-9.2,2.3c-5.7,1.9-11-0.2-16.4-1.6c-9.4-2.4-18.8-5-28.2-7.6
		c-10.8-2.9-21.5-5.9-32.3-8.7c-4.7-1.3-9.5-2.4-14.8-3.8c-3.1,24.4-6.1,48.5-9.2,73c-24.4,0.8-48.7,1.6-72.9,2.3
		c-0.1-0.2-0.2-0.5-0.3-0.7C478.9,418.7,490.7,413,502.8,407.1z"/>
	<path fill="#FEDA00" d="M611.3,244.3c-6.7,0-13.2-0.2-19.7,0c-5.9,0.2-11.8,0.6-17.6,1.2c-1.9,0.2-3.7,1.3-5.4,2.2
		c-8.5,4.5-17,9.2-25.5,13.7c-15.8,8.5-31.6,17-47.5,25.3c-1.9,1-4.3,1.7-6.5,1.7c-20.6-0.2-41.1-0.5-61.7-0.8
		c-4.9-0.1-5.2,0.5-3.3,5c0.7,1.6,1.4,3.2,2,4.8c0.1,0.3,0,0.6,0,1.6c-2.6-0.2-5-0.3-7.4-0.7c-6.5-0.9-13-1.9-19.5-2.9
		c-6.1-1-12.3-2.1-18.4-2.9c-1.4-0.2-3,0.5-4.5,0.8c0.8,1.1,1.4,2.4,2.3,3.4c3.7,4,7.5,7.8,11.3,11.7c-0.2,0.4-0.3,0.8-0.5,1.2
		c-6.6-0.4-13.2-0.7-19.8-1.1c-1.3-0.1-2.6-0.3-3.9-0.3c-17.9-0.1-35.9-0.4-53.8-0.1c-6,0.1-10.8-1.2-15.3-5.1
		c-4.2-3.7-8.9-6.8-13.2-10.3c-4.2-3.4-8.1-7.1-12.4-10.4c-4.4-3.4-9.1-6.5-13.6-9.8c-1.6-1.2-2.9-2.9-4.6-4.1
		c-1.4-1.1-3.2-1.7-4.6-2.8c-4-2.9-7.8-6.2-12-8.6c-3.2-1.8-7.1-2.5-10.7-3.9c-10.7-4.1-21.5-8.3-32.1-12.5
		c-7.3-2.9-14.5-6.1-21.8-9c-7.3-2.9-14.8-5.3-22.1-8.2c-9.8-3.9-20.1-4.9-30.3-6.7c-5.3-0.9-10.5-2-15.7-3.1
		c-6-1.3-9.7-6.4-14.5-9.6c-1.5-1-2.8-2.3-4.9-4c3.9-1.4,7.3-2.4,10.5-3.7c3.6-1.5,7.3-3.1,10.7-5c5-2.8,9.9-2.8,15.5-1.3
		c6.9,1.8,14.1,2.2,21,3.9c6.5,1.6,12.9,3.9,19.2,6.4c15.3,6,30.5,12.3,45.7,18.5c4.2,1.7,8.3,3.6,12.5,5c2.2,0.7,4.7,0.9,7,0.6
		c5.3-0.7,10.5-2,15.8-2.9c7.8-1.4,15.5-2.7,23.3-4c8.3-1.4,16.6-2.7,24.9-4.1c7.4-1.3,14.8-2.8,22.2-3.9c8.7-1.4,17.5-2.4,26.2-3.9
		c5.2-0.9,10.4-2.3,15.6-3.3c5.2-1,10.4-1.7,15.5-2.6c7.9-1.4,15.7-2.8,23.6-4.1c1.5-0.3,3.1-0.5,4.6-0.4c9.5,0.7,19,1.6,28.5,2.3
		c5.5,0.4,11,0.5,16.4,0.9c11.8,0.9,23.5,2,35.3,3.1c0.1,0,0.2,0,0.3,0c8.7,0.5,17.5,0.9,26.2,1.5c8.3,0.6,16.6,1.4,24.9,2.1
		c3.6,0.3,7.2,0.7,10.8,1c8,0.5,16,0.9,23.9,1.5c5.1,0.4,10.3,0.6,15.4,1.4c1.6,0.2,3.1,1.9,4.3,3.2c6.4,7.1,12.6,14.2,18.8,21.4
		C605.8,237.1,608.3,240.6,611.3,244.3z"/>
</g>
</svg>
